HIERARCHY
ROOT Hips
{
	OFFSET	0.00	0.00	0.00
	CHANNELS 6 Xposition Yposition Zposition Zrotation Xrotation Yrotation
	JOINT LeftUpLeg
	{
		OFFSET	 0.126116	-0.014019	-0.065224
		CHANNELS 3 Zrotation Xrotation Yrotation
		JOINT LeftLeg
		{
			OFFSET	 0.000000	 0.000000	 0.569914
			CHANNELS 3 Zrotation Xrotation Yrotation
			JOINT LeftFoot
			{
				OFFSET	 0.000000	 0.000000	 0.544423
				CHANNELS 3 Zrotation Xrotation Yrotation
				JOINT LeftToeBase
				{
					OFFSET	 0.000000	 0.000000	 0.207117
					CHANNELS 3 Zrotation Xrotation Yrotation
					End Site
					{
						OFFSET	 0.000000	 0.000000	 0.207117
					}
				}
			}
		}
	}
	JOINT RightUpLeg
	{
		OFFSET	-0.124023	-0.008373	-0.065224
		CHANNELS 3 Zrotation Xrotation Yrotation
		JOINT RightLeg
		{
			OFFSET	 0.000000	 0.000000	 0.570047
			CHANNELS 3 Zrotation Xrotation Yrotation
			JOINT RightFoot
			{
				OFFSET	 0.000000	 0.000000	 0.544354
				CHANNELS 3 Zrotation Xrotation Yrotation
				JOINT RightToeBase
				{
					OFFSET	 0.000000	 0.000000	 0.207540
					CHANNELS 3 Zrotation Xrotation Yrotation
					End Site
					{
						OFFSET	 0.000000	 0.000000	 0.207540
					}
				}
			}
		}
	}
	JOINT Spine
	{
		OFFSET	 0.000184	-0.007763	 0.117403
		CHANNELS 3 Zrotation Xrotation Yrotation
		JOINT Spine1
		{
			OFFSET	 0.000000	 0.000000	 0.137269
			CHANNELS 3 Zrotation Xrotation Yrotation
			JOINT Spine2
			{
				OFFSET	 0.000000	 0.000000	 0.156879
				CHANNELS 3 Zrotation Xrotation Yrotation
				JOINT LeftShoulder
				{
					OFFSET	 0.080501	-0.002496	 0.160144
					CHANNELS 3 Zrotation Xrotation Yrotation
					JOINT LeftArm
					{
						OFFSET	 0.000000	 0.000000	 0.164363
						CHANNELS 3 Zrotation Xrotation Yrotation
						JOINT LeftForeArm
						{
							OFFSET	 0.000000	 0.000000	 0.364576
							CHANNELS 3 Zrotation Xrotation Yrotation
							JOINT LeftHand
							{
								OFFSET	 0.000000	 0.000000	 0.360812
								CHANNELS 3 Zrotation Xrotation Yrotation
								JOINT LeftHandIndex1
								{
									OFFSET	 0.000000	 0.000000	 0.086006
									CHANNELS 3 Zrotation Xrotation Yrotation
									JOINT LeftHandIndex2
									{
										OFFSET	 0.000000	 0.000000	 0.047236
										CHANNELS 3 Zrotation Xrotation Yrotation
										JOINT LeftHandIndex3
										{
											OFFSET	-0.004284	-0.000551	 0.038166
											CHANNELS 3 Zrotation Xrotation Yrotation
											End Site
											{
												OFFSET	-0.004284	-0.000551	 0.038166
											}
										}
									}
								}
							}
						}
					}
				}
				JOINT Neck
				{
					OFFSET	 0.000000	 0.000000	 0.176489
					CHANNELS 3 Zrotation Xrotation Yrotation
					JOINT Head
					{
						OFFSET	 0.000000	-0.001747	 0.077940
						CHANNELS 3 Zrotation Xrotation Yrotation
						End Site
						{
							OFFSET	 0.000000	-0.001747	 0.077940
						}
					}
				}
				JOINT RightShoulder
				{
					OFFSET	-0.080363	 0.000306	 0.159706
					CHANNELS 3 Zrotation Xrotation Yrotation
					JOINT RightArm
					{
						OFFSET	 0.000000	 0.000000	 0.164196
						CHANNELS 3 Zrotation Xrotation Yrotation
						JOINT RightForeArm
						{
							OFFSET	 0.000000	 0.000000	 0.365611
							CHANNELS 3 Zrotation Xrotation Yrotation
							JOINT RightHand
							{
								OFFSET	 0.000000	 0.000000	 0.360648
								CHANNELS 3 Zrotation Xrotation Yrotation
								JOINT RightHandIndex1
								{
									OFFSET	 0.000000	 0.000000	 0.069977
									CHANNELS 3 Zrotation Xrotation Yrotation
									JOINT RightHandIndex2
									{
										OFFSET	 0.000000	 0.000000	 0.052305
										CHANNELS 3 Zrotation Xrotation Yrotation
										JOINT RightHandIndex3
										{
											OFFSET	 0.009002	-0.000782	 0.042196
											CHANNELS 3 Zrotation Xrotation Yrotation
											End Site
											{
												OFFSET	 0.009002	-0.000782	 0.042196
											}
										}
									}
								}
							}
						}
					}
				}
			}
		}
	}
}
MOTION
Frames:    6
Frame Time: 0.03333334
 5.232844	-0.766769	-0.188113	 166.171600	 3.905467	-0.983264	 9.959410	 16.965780	-176.343200	-6.137072	-11.623640	 1.542192	-21.466410	 89.269390	 24.955350	-2.299530	 39.871400	-0.272185	 3.919444	-45.829730	 179.345200	-0.703952	-45.453160	 3.331961	-177.348000	 83.349580	-178.645200	 2.406165	 20.370040	-0.165752	 1.883628	 2.168541	 2.668390	 3.836644	-5.737328	 1.540090	 5.081183	-10.000710	 0.136191	-91.776180	 78.527400	 180.000000	 46.637230	 64.285000	-61.961230	-7.132006	-5.299520	-29.359310	 4.937691	-11.428050	-5.471535	-3.812334	 37.924440	-2.927599	-2.450526	 36.184240	 0.754587	-1.378229	 35.397820	-2.634230	-0.121044	 5.138081	-2.341706	 1.592126	-24.359900	-1.603562	 89.782100	 78.203850	-180.000000	-37.294200	 76.015000	 40.934670	 3.958040	-7.478150	 21.200590	-14.231390	-12.510240	 9.762285	 6.437017	 35.671460	-0.771858	 2.830251	 35.756010	-7.813440	-2.350882	 35.473990	 5.254307
 5.233664	-0.751813	-0.193357	 162.677700	 4.015388	-0.888953	 9.715207	 17.500740	-176.283600	-5.970470	-11.624390	 1.536687	-15.997440	 89.169370	 19.455770	-2.290437	 40.657480	-0.293394	 4.299961	-45.891570	 179.799600	-0.655075	-42.994110	 3.322372	-176.980000	 83.810520	-178.686900	 2.400011	 23.889560	-0.094675	 1.815113	 2.295979	 2.689474	 3.759780	-5.526595	 1.506138	 5.046029	-9.700583	 0.084350	-91.776180	 78.527400	-180.000000	 41.786730	 62.110320	-56.998930	-6.608694	-4.586859	-27.447630	 3.971489	-11.442630	-5.470548	-3.812334	 37.924440	-2.927599	-2.450526	 36.184240	 0.754587	-1.378229	 35.397820	-2.634230	-0.187449	 4.880744	-2.368754	 1.550617	-23.458910	-1.607033	 89.782090	 78.203830	-180.000000	-30.823180	 73.013050	 34.656460	 3.926487	-6.541812	 20.021720	-12.705890	-12.523790	 9.760320	 6.437017	 35.671460	-0.771858	 2.830251	 35.756010	-7.813440	-2.350882	 35.473990	 5.254307
 5.238987	-0.733232	-0.195442	 163.183000	 4.105199	-1.072690	 9.420074	 18.269460	-176.297400	-5.718608	-11.624770	 1.534111	-9.891040	 88.989540	 13.333730	-2.275441	 41.869370	-0.326926	 4.516477	-45.689460	-179.713000	-0.193333	-42.316000	 3.653069	-176.305000	 84.546300	-178.929100	 2.389109	 27.322050	-0.022912	 1.703422	 2.160504	 2.681307	 3.630291	-5.585922	 1.424405	 4.940079	-9.706927	 0.035803	-91.776180	 78.527400	 180.000000	 42.553220	 62.276340	-57.859890	-6.390575	-4.587336	-26.572300	 4.204600	-11.474270	-5.468877	-3.812334	 37.924440	-2.927599	-2.450526	 36.184240	 0.754587	-1.378229	 35.397820	-2.634230	-0.276598	 5.031381	-2.302201	 1.485176	-23.716710	-1.639394	 89.782090	 78.203890	-180.000000	-30.363900	 73.192990	 33.851440	 3.852207	-6.478187	 19.639610	-12.824710	-12.551120	 9.758239	 6.437017	 35.671460	-0.771858	 2.830251	 35.756010	-7.813440	-2.350882	 35.473990	 5.254307
 5.245396	-0.712391	-0.195131	 163.603200	 4.195765	-1.217415	 9.145490	 19.134250	-176.414100	-5.415196	-11.624290	 1.537716	-4.353944	 88.670280	 7.816354	-2.258167	 43.153110	-0.363643	 4.786015	-45.482160	-179.281600	 0.122950	-42.073590	 3.955678	-175.732500	 85.376110	-179.168800	 2.378697	 29.649540	 0.027515	 1.599940	 2.043073	 2.617966	 3.521443	-5.664664	 1.349455	 4.892463	-9.700133	-0.011241	-91.776180	 78.527420	-180.000000	 43.297710	 62.612740	-58.558650	-6.243534	-4.576280	-25.562190	 4.466622	-11.520750	-5.466803	-3.812334	 37.924440	-2.927599	-2.450526	 36.184240	 0.754587	-1.378229	 35.397820	-2.634230	-0.365007	 5.176971	-2.298597	 1.421775	-23.872320	-1.613544	 89.782120	 78.203870	 180.000000	-29.784160	 73.442650	 32.967750	 3.850093	-6.421062	 19.261070	-12.961840	-12.593520	 9.755196	 6.437017	 35.671460	-0.771858	 2.830251	 35.756010	-7.813440	-2.350882	 35.473990	 5.254307
 5.252268	-0.691011	-0.196024	 163.980200	 4.301383	-1.322805	 8.914421	 20.006500	-176.610500	-5.088297	-11.623060	 1.547245	-0.300272	 88.163250	 3.820046	-2.237194	 44.579180	-0.406000	 5.035932	-45.147990	-178.924500	 0.429601	-42.237990	 4.294489	-175.541900	 86.176330	-179.069600	 2.375686	 30.231800	 0.040386	 1.496113	 1.891610	 2.519427	 3.419705	-5.751870	 1.258174	 4.852211	-9.680647	-0.056721	-91.776180	 78.527400	-180.000000	 43.985140	 63.067920	-59.128140	-6.186477	-4.554729	-24.538120	 4.729963	-11.579340	-5.464397	-3.812334	 37.924440	-2.927599	-2.450526	 36.184240	 0.754587	-1.378229	 35.397820	-2.634230	-0.451739	 5.196083	-2.274371	 1.362641	-23.880820	-1.568323	 89.782090	 78.203830	-180.000000	-29.151740	 73.714420	 32.063560	 3.891209	-6.373340	 18.923830	-13.095750	-12.646480	 9.752014	 6.437017	 35.671460	-0.771858	 2.830251	 35.756010	-7.813440	-2.350882	 35.473990	 5.254307
 5.259695	-0.668512	-0.197621	 164.331600	 4.418856	-1.415985	 8.713809	 20.906040	-176.876200	-4.728379	-11.621020	 1.562649	 2.319662	 87.386340	 1.300706	-2.209598	 46.272490	-0.458693	 5.258279	-44.696520	-178.593700	 0.874549	-42.725510	 4.760668	-175.506700	 87.099710	-178.759300	 2.379274	 29.535780	 0.025004	 1.385164	 1.717361	 2.393205	 3.322992	-5.854986	 1.164384	 4.830760	-9.662807	-0.103425	-91.776180	 78.527380	-180.000000	 44.591620	 63.655830	-59.506210	-6.215515	-4.523756	-23.495630	 4.999784	-11.651960	-5.461189	-3.812334	 37.924440	-2.927599	-2.450526	 36.184240	 0.754587	-1.378229	 35.397820	-2.634230	-0.538030	 5.120396	-2.236577	 1.309985	-23.777550	-1.488726	 89.782090	 78.203830	-180.000000	-28.474340	 73.995640	 31.115180	 3.953927	-6.330484	 18.615950	-13.222020	-12.710700	 9.749137	 6.437017	 35.671460	-0.771858	 2.830251	 35.756010	-7.813440	-2.350882	 35.473990	 5.254307
